<mxfile host="app.diagrams.net" modified="2023-12-29T11:21:30.792Z" agent="Mozilla/5.0 (Windows NT 10.0; Win64; x64) AppleWebKit/537.36 (KHTML, like Gecko) Chrome/120.0.0.0 Safari/537.36" etag="FmxS9OFSgAqwYLq4GWvI" version="22.1.16" type="device">
  <diagram name="Страница — 1" id="-1iA6cYRSh7emuAoimqA">
    <mxGraphModel dx="1588" dy="1094" grid="1" gridSize="10" guides="1" tooltips="1" connect="1" arrows="1" fold="1" page="1" pageScale="1" pageWidth="827" pageHeight="1169" math="0" shadow="0">
      <root>
        <mxCell id="0" />
        <mxCell id="1" parent="0" />
        <mxCell id="Dm8e_R-dV30CJtn95JaC-8" style="rounded=0;orthogonalLoop=1;jettySize=auto;html=1;exitX=0.5;exitY=0.5;exitDx=0;exitDy=0;exitPerimeter=0;entryX=0;entryY=0.5;entryDx=0;entryDy=0;endArrow=none;endFill=0;labelBackgroundColor=none;strokeColor=#A8201A;fontColor=default;" edge="1" parent="1" source="Dm8e_R-dV30CJtn95JaC-1" target="Dm8e_R-dV30CJtn95JaC-4">
          <mxGeometry relative="1" as="geometry" />
        </mxCell>
        <mxCell id="Dm8e_R-dV30CJtn95JaC-9" style="rounded=0;orthogonalLoop=1;jettySize=auto;html=1;exitX=0.5;exitY=0.5;exitDx=0;exitDy=0;exitPerimeter=0;entryX=0;entryY=0.5;entryDx=0;entryDy=0;endArrow=none;endFill=0;labelBackgroundColor=none;strokeColor=#A8201A;fontColor=default;" edge="1" parent="1" source="Dm8e_R-dV30CJtn95JaC-1" target="Dm8e_R-dV30CJtn95JaC-6">
          <mxGeometry relative="1" as="geometry" />
        </mxCell>
        <mxCell id="Dm8e_R-dV30CJtn95JaC-11" style="rounded=0;orthogonalLoop=1;jettySize=auto;html=1;exitX=0.5;exitY=0.5;exitDx=0;exitDy=0;exitPerimeter=0;entryX=0;entryY=0.5;entryDx=0;entryDy=0;endArrow=none;endFill=0;labelBackgroundColor=none;strokeColor=#A8201A;fontColor=default;" edge="1" parent="1" source="Dm8e_R-dV30CJtn95JaC-1" target="Dm8e_R-dV30CJtn95JaC-10">
          <mxGeometry relative="1" as="geometry" />
        </mxCell>
        <mxCell id="Dm8e_R-dV30CJtn95JaC-13" style="rounded=0;orthogonalLoop=1;jettySize=auto;html=1;exitX=0.5;exitY=0.5;exitDx=0;exitDy=0;exitPerimeter=0;entryX=0;entryY=0.5;entryDx=0;entryDy=0;strokeColor=#A8201A;fontColor=#143642;fillColor=#FAE5C7;endArrow=none;endFill=0;" edge="1" parent="1" source="Dm8e_R-dV30CJtn95JaC-1" target="Dm8e_R-dV30CJtn95JaC-12">
          <mxGeometry relative="1" as="geometry" />
        </mxCell>
        <mxCell id="Dm8e_R-dV30CJtn95JaC-15" style="rounded=0;orthogonalLoop=1;jettySize=auto;html=1;exitX=0.5;exitY=0.5;exitDx=0;exitDy=0;exitPerimeter=0;entryX=0;entryY=0.5;entryDx=0;entryDy=0;strokeColor=#A8201A;fontColor=#143642;fillColor=#FAE5C7;endArrow=none;endFill=0;" edge="1" parent="1" source="Dm8e_R-dV30CJtn95JaC-1" target="Dm8e_R-dV30CJtn95JaC-14">
          <mxGeometry relative="1" as="geometry" />
        </mxCell>
        <mxCell id="Dm8e_R-dV30CJtn95JaC-1" value="Гість" style="shape=umlActor;verticalLabelPosition=bottom;verticalAlign=top;html=1;outlineConnect=0;labelBackgroundColor=none;fillColor=#FAE5C7;strokeColor=#0F8B8D;fontColor=#143642;" vertex="1" parent="1">
          <mxGeometry x="30" y="235" width="30" height="60" as="geometry" />
        </mxCell>
        <mxCell id="Dm8e_R-dV30CJtn95JaC-18" style="rounded=0;orthogonalLoop=1;jettySize=auto;html=1;exitX=1;exitY=0.3333333333333333;exitDx=0;exitDy=0;exitPerimeter=0;entryX=0;entryY=0.5;entryDx=0;entryDy=0;strokeColor=#A8201A;fontColor=#143642;fillColor=#FAE5C7;endArrow=none;endFill=0;" edge="1" parent="1" source="Dm8e_R-dV30CJtn95JaC-2" target="Dm8e_R-dV30CJtn95JaC-10">
          <mxGeometry relative="1" as="geometry" />
        </mxCell>
        <mxCell id="Dm8e_R-dV30CJtn95JaC-19" style="rounded=0;orthogonalLoop=1;jettySize=auto;html=1;exitX=1;exitY=0.3333333333333333;exitDx=0;exitDy=0;exitPerimeter=0;entryX=0;entryY=0.5;entryDx=0;entryDy=0;strokeColor=#A8201A;fontColor=#143642;fillColor=#FAE5C7;endArrow=none;endFill=0;" edge="1" parent="1" source="Dm8e_R-dV30CJtn95JaC-2" target="Dm8e_R-dV30CJtn95JaC-12">
          <mxGeometry relative="1" as="geometry" />
        </mxCell>
        <mxCell id="Dm8e_R-dV30CJtn95JaC-20" style="rounded=0;orthogonalLoop=1;jettySize=auto;html=1;exitX=1;exitY=0.3333333333333333;exitDx=0;exitDy=0;exitPerimeter=0;entryX=0;entryY=0.5;entryDx=0;entryDy=0;strokeColor=#A8201A;fontColor=#143642;fillColor=#FAE5C7;endArrow=none;endFill=0;" edge="1" parent="1" source="Dm8e_R-dV30CJtn95JaC-2" target="Dm8e_R-dV30CJtn95JaC-14">
          <mxGeometry relative="1" as="geometry" />
        </mxCell>
        <mxCell id="Dm8e_R-dV30CJtn95JaC-25" style="rounded=0;orthogonalLoop=1;jettySize=auto;html=1;exitX=0.5;exitY=0.5;exitDx=0;exitDy=0;exitPerimeter=0;entryX=0;entryY=0.5;entryDx=0;entryDy=0;strokeColor=#A8201A;fontColor=#143642;fillColor=#FAE5C7;endArrow=none;endFill=0;" edge="1" parent="1" source="Dm8e_R-dV30CJtn95JaC-2" target="Dm8e_R-dV30CJtn95JaC-21">
          <mxGeometry relative="1" as="geometry" />
        </mxCell>
        <mxCell id="Dm8e_R-dV30CJtn95JaC-26" style="rounded=0;orthogonalLoop=1;jettySize=auto;html=1;exitX=0.5;exitY=0.5;exitDx=0;exitDy=0;exitPerimeter=0;entryX=0;entryY=0.5;entryDx=0;entryDy=0;strokeColor=#A8201A;fontColor=#143642;fillColor=#FAE5C7;endArrow=none;endFill=0;" edge="1" parent="1" source="Dm8e_R-dV30CJtn95JaC-2" target="Dm8e_R-dV30CJtn95JaC-22">
          <mxGeometry relative="1" as="geometry" />
        </mxCell>
        <mxCell id="Dm8e_R-dV30CJtn95JaC-2" value="Користувач" style="shape=umlActor;verticalLabelPosition=bottom;verticalAlign=top;html=1;outlineConnect=0;labelBackgroundColor=none;fillColor=#FAE5C7;strokeColor=#0F8B8D;fontColor=#143642;" vertex="1" parent="1">
          <mxGeometry x="30" y="475" width="30" height="60" as="geometry" />
        </mxCell>
        <mxCell id="Dm8e_R-dV30CJtn95JaC-30" style="edgeStyle=orthogonalEdgeStyle;rounded=0;orthogonalLoop=1;jettySize=auto;html=1;exitX=0.5;exitY=0;exitDx=0;exitDy=0;exitPerimeter=0;strokeColor=#A8201A;fontColor=#143642;fillColor=#FAE5C7;" edge="1" parent="1" source="Dm8e_R-dV30CJtn95JaC-3">
          <mxGeometry relative="1" as="geometry">
            <mxPoint x="45.333333333333485" y="565" as="targetPoint" />
          </mxGeometry>
        </mxCell>
        <mxCell id="Dm8e_R-dV30CJtn95JaC-39" style="rounded=0;orthogonalLoop=1;jettySize=auto;html=1;exitX=0.5;exitY=0.5;exitDx=0;exitDy=0;exitPerimeter=0;entryX=0;entryY=0.5;entryDx=0;entryDy=0;strokeColor=#A8201A;fontColor=#143642;fillColor=#FAE5C7;endArrow=none;endFill=0;" edge="1" parent="1" source="Dm8e_R-dV30CJtn95JaC-3" target="Dm8e_R-dV30CJtn95JaC-37">
          <mxGeometry relative="1" as="geometry" />
        </mxCell>
        <mxCell id="Dm8e_R-dV30CJtn95JaC-3" value="Адміністратор" style="shape=umlActor;verticalLabelPosition=bottom;verticalAlign=top;html=1;outlineConnect=0;labelBackgroundColor=none;fillColor=#FAE5C7;strokeColor=#0F8B8D;fontColor=#143642;" vertex="1" parent="1">
          <mxGeometry x="30" y="715" width="30" height="60" as="geometry" />
        </mxCell>
        <mxCell id="Dm8e_R-dV30CJtn95JaC-17" value="" style="group" vertex="1" connectable="0" parent="1">
          <mxGeometry x="385" y="80" width="110" height="370" as="geometry" />
        </mxCell>
        <mxCell id="Dm8e_R-dV30CJtn95JaC-4" value="Зареєструватися" style="ellipse;whiteSpace=wrap;html=1;labelBackgroundColor=none;fillColor=#FAE5C7;strokeColor=#0F8B8D;fontColor=#143642;" vertex="1" parent="Dm8e_R-dV30CJtn95JaC-17">
          <mxGeometry width="110" height="50" as="geometry" />
        </mxCell>
        <mxCell id="Dm8e_R-dV30CJtn95JaC-6" value="Увійти" style="ellipse;whiteSpace=wrap;html=1;labelBackgroundColor=none;fillColor=#FAE5C7;strokeColor=#0F8B8D;fontColor=#143642;" vertex="1" parent="Dm8e_R-dV30CJtn95JaC-17">
          <mxGeometry y="80" width="110" height="50" as="geometry" />
        </mxCell>
        <mxCell id="Dm8e_R-dV30CJtn95JaC-10" value="Переглянути фільм та його інформацію" style="ellipse;whiteSpace=wrap;html=1;labelBackgroundColor=none;fillColor=#FAE5C7;strokeColor=#0F8B8D;fontColor=#143642;" vertex="1" parent="Dm8e_R-dV30CJtn95JaC-17">
          <mxGeometry y="160" width="110" height="50" as="geometry" />
        </mxCell>
        <mxCell id="Dm8e_R-dV30CJtn95JaC-12" value="Фільтрувати та шукати фільми" style="ellipse;whiteSpace=wrap;html=1;labelBackgroundColor=none;fillColor=#FAE5C7;strokeColor=#0F8B8D;fontColor=#143642;" vertex="1" parent="Dm8e_R-dV30CJtn95JaC-17">
          <mxGeometry y="240" width="110" height="50" as="geometry" />
        </mxCell>
        <mxCell id="Dm8e_R-dV30CJtn95JaC-14" value="Переглянути коментарі" style="ellipse;whiteSpace=wrap;html=1;labelBackgroundColor=none;fillColor=#FAE5C7;strokeColor=#0F8B8D;fontColor=#143642;" vertex="1" parent="Dm8e_R-dV30CJtn95JaC-17">
          <mxGeometry y="320" width="110" height="50" as="geometry" />
        </mxCell>
        <mxCell id="Dm8e_R-dV30CJtn95JaC-27" value="" style="endArrow=none;html=1;rounded=0;strokeColor=#A8201A;fontColor=#143642;fillColor=#FAE5C7;exitX=0.5;exitY=0.5;exitDx=0;exitDy=0;exitPerimeter=0;entryX=0;entryY=0.5;entryDx=0;entryDy=0;" edge="1" parent="1" source="Dm8e_R-dV30CJtn95JaC-2" target="Dm8e_R-dV30CJtn95JaC-23">
          <mxGeometry width="50" height="50" relative="1" as="geometry">
            <mxPoint x="100" y="725" as="sourcePoint" />
            <mxPoint x="150" y="675" as="targetPoint" />
          </mxGeometry>
        </mxCell>
        <mxCell id="Dm8e_R-dV30CJtn95JaC-28" value="" style="endArrow=none;html=1;rounded=0;strokeColor=#A8201A;fontColor=#143642;fillColor=#FAE5C7;exitX=0.5;exitY=0.5;exitDx=0;exitDy=0;exitPerimeter=0;entryX=0;entryY=0.5;entryDx=0;entryDy=0;" edge="1" parent="1" source="Dm8e_R-dV30CJtn95JaC-2" target="Dm8e_R-dV30CJtn95JaC-24">
          <mxGeometry width="50" height="50" relative="1" as="geometry">
            <mxPoint x="360" y="615" as="sourcePoint" />
            <mxPoint x="410" y="565" as="targetPoint" />
          </mxGeometry>
        </mxCell>
        <mxCell id="Dm8e_R-dV30CJtn95JaC-29" value="" style="group" vertex="1" connectable="0" parent="1">
          <mxGeometry x="360" y="485" width="160" height="290" as="geometry" />
        </mxCell>
        <mxCell id="Dm8e_R-dV30CJtn95JaC-21" value="Додати, видалити, переглянути збережені&lt;br&gt;фільми" style="ellipse;whiteSpace=wrap;html=1;labelBackgroundColor=none;fillColor=#FAE5C7;strokeColor=#0F8B8D;fontColor=#143642;" vertex="1" parent="Dm8e_R-dV30CJtn95JaC-29">
          <mxGeometry width="160" height="50" as="geometry" />
        </mxCell>
        <mxCell id="Dm8e_R-dV30CJtn95JaC-22" value="Переглянути та редагувати особисті дані" style="ellipse;whiteSpace=wrap;html=1;labelBackgroundColor=none;fillColor=#FAE5C7;strokeColor=#0F8B8D;fontColor=#143642;" vertex="1" parent="Dm8e_R-dV30CJtn95JaC-29">
          <mxGeometry y="80" width="160" height="50" as="geometry" />
        </mxCell>
        <mxCell id="Dm8e_R-dV30CJtn95JaC-23" value="Написати коментар та виставити оцінку до фільма" style="ellipse;whiteSpace=wrap;html=1;labelBackgroundColor=none;fillColor=#FAE5C7;strokeColor=#0F8B8D;fontColor=#143642;" vertex="1" parent="Dm8e_R-dV30CJtn95JaC-29">
          <mxGeometry y="159.5" width="160" height="50" as="geometry" />
        </mxCell>
        <mxCell id="Dm8e_R-dV30CJtn95JaC-24" value="Видалити акаунт" style="ellipse;whiteSpace=wrap;html=1;labelBackgroundColor=none;fillColor=#FAE5C7;strokeColor=#0F8B8D;fontColor=#143642;" vertex="1" parent="Dm8e_R-dV30CJtn95JaC-29">
          <mxGeometry y="240" width="160" height="50" as="geometry" />
        </mxCell>
        <mxCell id="Dm8e_R-dV30CJtn95JaC-31" value="Видалити опублікований коментар" style="ellipse;whiteSpace=wrap;html=1;labelBackgroundColor=none;fillColor=#FAE5C7;strokeColor=#0F8B8D;fontColor=#143642;" vertex="1" parent="1">
          <mxGeometry x="150" y="720" width="160" height="50" as="geometry" />
        </mxCell>
        <mxCell id="Dm8e_R-dV30CJtn95JaC-33" value="" style="endArrow=none;html=1;rounded=0;strokeColor=#A8201A;fontColor=#143642;fillColor=#FAE5C7;exitX=0.5;exitY=0.5;exitDx=0;exitDy=0;exitPerimeter=0;entryX=0;entryY=0.5;entryDx=0;entryDy=0;" edge="1" parent="1" source="Dm8e_R-dV30CJtn95JaC-3" target="Dm8e_R-dV30CJtn95JaC-31">
          <mxGeometry width="50" height="50" relative="1" as="geometry">
            <mxPoint x="90" y="605" as="sourcePoint" />
            <mxPoint x="140" y="555" as="targetPoint" />
          </mxGeometry>
        </mxCell>
        <mxCell id="Dm8e_R-dV30CJtn95JaC-34" value="Переглянути анонсовані фільми" style="ellipse;whiteSpace=wrap;html=1;labelBackgroundColor=none;fillColor=#FAE5C7;strokeColor=#0F8B8D;fontColor=#143642;" vertex="1" parent="1">
          <mxGeometry x="150" y="795" width="160" height="50" as="geometry" />
        </mxCell>
        <mxCell id="Dm8e_R-dV30CJtn95JaC-36" value="" style="endArrow=none;html=1;rounded=0;strokeColor=#A8201A;fontColor=#143642;fillColor=#FAE5C7;entryX=0;entryY=0.5;entryDx=0;entryDy=0;exitX=0.5;exitY=0.5;exitDx=0;exitDy=0;exitPerimeter=0;" edge="1" parent="1" source="Dm8e_R-dV30CJtn95JaC-3" target="Dm8e_R-dV30CJtn95JaC-34">
          <mxGeometry width="50" height="50" relative="1" as="geometry">
            <mxPoint x="90" y="605" as="sourcePoint" />
            <mxPoint x="140" y="555" as="targetPoint" />
          </mxGeometry>
        </mxCell>
        <mxCell id="Dm8e_R-dV30CJtn95JaC-37" value="Перегляти особисту інформацію авторизованих користувачів" style="ellipse;whiteSpace=wrap;html=1;labelBackgroundColor=none;fillColor=#FAE5C7;strokeColor=#0F8B8D;fontColor=#143642;" vertex="1" parent="1">
          <mxGeometry x="150" y="865" width="160" height="50" as="geometry" />
        </mxCell>
        <mxCell id="Dm8e_R-dV30CJtn95JaC-38" value="Видалити акаунт звичайного користувача" style="ellipse;whiteSpace=wrap;html=1;labelBackgroundColor=none;fillColor=#FAE5C7;strokeColor=#0F8B8D;fontColor=#143642;" vertex="1" parent="1">
          <mxGeometry x="150" y="935" width="160" height="50" as="geometry" />
        </mxCell>
        <mxCell id="Dm8e_R-dV30CJtn95JaC-40" value="" style="endArrow=none;html=1;rounded=0;strokeColor=#A8201A;fontColor=#143642;fillColor=#FAE5C7;entryX=0;entryY=0.5;entryDx=0;entryDy=0;" edge="1" parent="1" target="Dm8e_R-dV30CJtn95JaC-38">
          <mxGeometry width="50" height="50" relative="1" as="geometry">
            <mxPoint x="50" y="745" as="sourcePoint" />
            <mxPoint x="140" y="615" as="targetPoint" />
          </mxGeometry>
        </mxCell>
        <mxCell id="Dm8e_R-dV30CJtn95JaC-42" value="Шукати фільми за назвою" style="ellipse;whiteSpace=wrap;html=1;labelBackgroundColor=none;fillColor=#FAE5C7;strokeColor=#0F8B8D;fontColor=#143642;" vertex="1" parent="1">
          <mxGeometry x="660" y="305" width="110" height="50" as="geometry" />
        </mxCell>
        <mxCell id="Dm8e_R-dV30CJtn95JaC-43" style="rounded=0;orthogonalLoop=1;jettySize=auto;html=1;exitX=1;exitY=0.5;exitDx=0;exitDy=0;entryX=0;entryY=0.5;entryDx=0;entryDy=0;strokeColor=#A8201A;fontColor=#143642;fillColor=#FAE5C7;dashed=1;" edge="1" parent="1" source="Dm8e_R-dV30CJtn95JaC-12" target="Dm8e_R-dV30CJtn95JaC-42">
          <mxGeometry relative="1" as="geometry" />
        </mxCell>
        <mxCell id="Dm8e_R-dV30CJtn95JaC-47" value="&amp;lt;&amp;lt;include&amp;gt;&amp;gt;" style="edgeLabel;html=1;align=center;verticalAlign=middle;resizable=0;points=[];fontColor=#143642;" vertex="1" connectable="0" parent="Dm8e_R-dV30CJtn95JaC-43">
          <mxGeometry x="-0.0581" y="2" relative="1" as="geometry">
            <mxPoint x="1" as="offset" />
          </mxGeometry>
        </mxCell>
        <mxCell id="Dm8e_R-dV30CJtn95JaC-44" value="Шукати фільми&amp;nbsp;за жанром та роком" style="ellipse;whiteSpace=wrap;html=1;labelBackgroundColor=none;fillColor=#FAE5C7;strokeColor=#0F8B8D;fontColor=#143642;" vertex="1" parent="1">
          <mxGeometry x="660" y="365" width="110" height="50" as="geometry" />
        </mxCell>
        <mxCell id="Dm8e_R-dV30CJtn95JaC-46" style="rounded=0;orthogonalLoop=1;jettySize=auto;html=1;exitX=1;exitY=0.5;exitDx=0;exitDy=0;entryX=0;entryY=0.5;entryDx=0;entryDy=0;strokeColor=#A8201A;fontColor=#143642;fillColor=#FAE5C7;dashed=1;" edge="1" parent="1" source="Dm8e_R-dV30CJtn95JaC-12" target="Dm8e_R-dV30CJtn95JaC-44">
          <mxGeometry relative="1" as="geometry" />
        </mxCell>
        <mxCell id="Dm8e_R-dV30CJtn95JaC-48" value="&amp;lt;&amp;lt;include&amp;gt;&amp;gt;" style="edgeLabel;html=1;align=center;verticalAlign=middle;resizable=0;points=[];fontColor=#143642;" vertex="1" connectable="0" parent="Dm8e_R-dV30CJtn95JaC-46">
          <mxGeometry x="-0.0842" relative="1" as="geometry">
            <mxPoint as="offset" />
          </mxGeometry>
        </mxCell>
        <mxCell id="Dm8e_R-dV30CJtn95JaC-49" value="Додати фільм до збережених" style="ellipse;whiteSpace=wrap;html=1;labelBackgroundColor=none;fillColor=#FAE5C7;strokeColor=#0F8B8D;fontColor=#143642;" vertex="1" parent="1">
          <mxGeometry x="660" y="425" width="110" height="50" as="geometry" />
        </mxCell>
        <mxCell id="Dm8e_R-dV30CJtn95JaC-50" value="Видалити фільм з збережених" style="ellipse;whiteSpace=wrap;html=1;labelBackgroundColor=none;fillColor=#FAE5C7;strokeColor=#0F8B8D;fontColor=#143642;" vertex="1" parent="1">
          <mxGeometry x="660" y="485" width="110" height="50" as="geometry" />
        </mxCell>
        <mxCell id="Dm8e_R-dV30CJtn95JaC-51" value="Переглянути фільми у збережених" style="ellipse;whiteSpace=wrap;html=1;labelBackgroundColor=none;fillColor=#FAE5C7;strokeColor=#0F8B8D;fontColor=#143642;" vertex="1" parent="1">
          <mxGeometry x="660" y="545" width="110" height="50" as="geometry" />
        </mxCell>
        <mxCell id="Dm8e_R-dV30CJtn95JaC-52" style="rounded=0;orthogonalLoop=1;jettySize=auto;html=1;exitX=1;exitY=0.5;exitDx=0;exitDy=0;entryX=0;entryY=0.5;entryDx=0;entryDy=0;strokeColor=#A8201A;fontColor=#143642;fillColor=#FAE5C7;dashed=1;" edge="1" parent="1" source="Dm8e_R-dV30CJtn95JaC-21" target="Dm8e_R-dV30CJtn95JaC-49">
          <mxGeometry relative="1" as="geometry">
            <mxPoint x="580" y="355" as="sourcePoint" />
            <mxPoint x="660" y="390" as="targetPoint" />
          </mxGeometry>
        </mxCell>
        <mxCell id="Dm8e_R-dV30CJtn95JaC-53" value="&amp;lt;&amp;lt;include&amp;gt;&amp;gt;" style="edgeLabel;html=1;align=center;verticalAlign=middle;resizable=0;points=[];fontColor=#143642;" vertex="1" connectable="0" parent="Dm8e_R-dV30CJtn95JaC-52">
          <mxGeometry x="-0.0842" relative="1" as="geometry">
            <mxPoint as="offset" />
          </mxGeometry>
        </mxCell>
        <mxCell id="Dm8e_R-dV30CJtn95JaC-54" style="rounded=0;orthogonalLoop=1;jettySize=auto;html=1;exitX=1;exitY=0.5;exitDx=0;exitDy=0;entryX=0;entryY=0.5;entryDx=0;entryDy=0;strokeColor=#A8201A;fontColor=#143642;fillColor=#FAE5C7;dashed=1;" edge="1" parent="1" source="Dm8e_R-dV30CJtn95JaC-21" target="Dm8e_R-dV30CJtn95JaC-50">
          <mxGeometry relative="1" as="geometry">
            <mxPoint x="590" y="365" as="sourcePoint" />
            <mxPoint x="670" y="400" as="targetPoint" />
          </mxGeometry>
        </mxCell>
        <mxCell id="Dm8e_R-dV30CJtn95JaC-55" value="&amp;lt;&amp;lt;include&amp;gt;&amp;gt;" style="edgeLabel;html=1;align=center;verticalAlign=middle;resizable=0;points=[];fontColor=#143642;" vertex="1" connectable="0" parent="Dm8e_R-dV30CJtn95JaC-54">
          <mxGeometry x="-0.0842" relative="1" as="geometry">
            <mxPoint as="offset" />
          </mxGeometry>
        </mxCell>
        <mxCell id="Dm8e_R-dV30CJtn95JaC-56" style="rounded=0;orthogonalLoop=1;jettySize=auto;html=1;exitX=1;exitY=0.5;exitDx=0;exitDy=0;entryX=0;entryY=0.5;entryDx=0;entryDy=0;strokeColor=#A8201A;fontColor=#143642;fillColor=#FAE5C7;dashed=1;" edge="1" parent="1" source="Dm8e_R-dV30CJtn95JaC-21" target="Dm8e_R-dV30CJtn95JaC-51">
          <mxGeometry relative="1" as="geometry">
            <mxPoint x="530" y="520" as="sourcePoint" />
            <mxPoint x="660" y="550" as="targetPoint" />
          </mxGeometry>
        </mxCell>
        <mxCell id="Dm8e_R-dV30CJtn95JaC-57" value="&amp;lt;&amp;lt;include&amp;gt;&amp;gt;" style="edgeLabel;html=1;align=center;verticalAlign=middle;resizable=0;points=[];fontColor=#143642;" vertex="1" connectable="0" parent="Dm8e_R-dV30CJtn95JaC-56">
          <mxGeometry x="-0.0842" relative="1" as="geometry">
            <mxPoint as="offset" />
          </mxGeometry>
        </mxCell>
        <mxCell id="Dm8e_R-dV30CJtn95JaC-58" value="Дивитися фільм" style="ellipse;whiteSpace=wrap;html=1;labelBackgroundColor=none;fillColor=#FAE5C7;strokeColor=#0F8B8D;fontColor=#143642;" vertex="1" parent="1">
          <mxGeometry x="660" y="185" width="110" height="50" as="geometry" />
        </mxCell>
        <mxCell id="Dm8e_R-dV30CJtn95JaC-60" value="Переглянути інформацію про фільм" style="ellipse;whiteSpace=wrap;html=1;labelBackgroundColor=none;fillColor=#FAE5C7;strokeColor=#0F8B8D;fontColor=#143642;" vertex="1" parent="1">
          <mxGeometry x="660" y="245" width="110" height="50" as="geometry" />
        </mxCell>
        <mxCell id="Dm8e_R-dV30CJtn95JaC-61" style="rounded=0;orthogonalLoop=1;jettySize=auto;html=1;exitX=1;exitY=0.5;exitDx=0;exitDy=0;entryX=0;entryY=0.5;entryDx=0;entryDy=0;strokeColor=#A8201A;fontColor=#143642;fillColor=#FAE5C7;dashed=1;" edge="1" parent="1" source="Dm8e_R-dV30CJtn95JaC-10" target="Dm8e_R-dV30CJtn95JaC-60">
          <mxGeometry relative="1" as="geometry">
            <mxPoint x="580" y="355" as="sourcePoint" />
            <mxPoint x="670" y="380" as="targetPoint" />
          </mxGeometry>
        </mxCell>
        <mxCell id="Dm8e_R-dV30CJtn95JaC-62" value="&amp;lt;&amp;lt;include&amp;gt;&amp;gt;" style="edgeLabel;html=1;align=center;verticalAlign=middle;resizable=0;points=[];fontColor=#143642;" vertex="1" connectable="0" parent="Dm8e_R-dV30CJtn95JaC-61">
          <mxGeometry x="-0.0842" relative="1" as="geometry">
            <mxPoint as="offset" />
          </mxGeometry>
        </mxCell>
        <mxCell id="Dm8e_R-dV30CJtn95JaC-63" style="rounded=0;orthogonalLoop=1;jettySize=auto;html=1;exitX=1;exitY=0.5;exitDx=0;exitDy=0;entryX=0;entryY=0.5;entryDx=0;entryDy=0;strokeColor=#A8201A;fontColor=#143642;fillColor=#FAE5C7;dashed=1;" edge="1" parent="1" source="Dm8e_R-dV30CJtn95JaC-10" target="Dm8e_R-dV30CJtn95JaC-58">
          <mxGeometry relative="1" as="geometry">
            <mxPoint x="580" y="275" as="sourcePoint" />
            <mxPoint x="670" y="250" as="targetPoint" />
          </mxGeometry>
        </mxCell>
        <mxCell id="Dm8e_R-dV30CJtn95JaC-64" value="&amp;lt;&amp;lt;include&amp;gt;&amp;gt;" style="edgeLabel;html=1;align=center;verticalAlign=middle;resizable=0;points=[];fontColor=#143642;" vertex="1" connectable="0" parent="Dm8e_R-dV30CJtn95JaC-63">
          <mxGeometry x="-0.0842" relative="1" as="geometry">
            <mxPoint as="offset" />
          </mxGeometry>
        </mxCell>
        <mxCell id="Dm8e_R-dV30CJtn95JaC-65" value="Написати текст відгуку" style="ellipse;whiteSpace=wrap;html=1;labelBackgroundColor=none;fillColor=#FAE5C7;strokeColor=#0F8B8D;fontColor=#143642;" vertex="1" parent="1">
          <mxGeometry x="660" y="605" width="110" height="50" as="geometry" />
        </mxCell>
        <mxCell id="Dm8e_R-dV30CJtn95JaC-66" value="Поставити оцінку фільму" style="ellipse;whiteSpace=wrap;html=1;labelBackgroundColor=none;fillColor=#FAE5C7;strokeColor=#0F8B8D;fontColor=#143642;" vertex="1" parent="1">
          <mxGeometry x="660" y="665" width="110" height="50" as="geometry" />
        </mxCell>
        <mxCell id="Dm8e_R-dV30CJtn95JaC-67" style="rounded=0;orthogonalLoop=1;jettySize=auto;html=1;exitX=1;exitY=0.5;exitDx=0;exitDy=0;entryX=0;entryY=0.5;entryDx=0;entryDy=0;strokeColor=#A8201A;fontColor=#143642;fillColor=#FAE5C7;dashed=1;" edge="1" parent="1" source="Dm8e_R-dV30CJtn95JaC-23" target="Dm8e_R-dV30CJtn95JaC-65">
          <mxGeometry relative="1" as="geometry">
            <mxPoint x="530" y="520" as="sourcePoint" />
            <mxPoint x="670" y="580" as="targetPoint" />
          </mxGeometry>
        </mxCell>
        <mxCell id="Dm8e_R-dV30CJtn95JaC-68" value="&amp;lt;&amp;lt;include&amp;gt;&amp;gt;" style="edgeLabel;html=1;align=center;verticalAlign=middle;resizable=0;points=[];fontColor=#143642;" vertex="1" connectable="0" parent="Dm8e_R-dV30CJtn95JaC-67">
          <mxGeometry x="-0.0842" relative="1" as="geometry">
            <mxPoint as="offset" />
          </mxGeometry>
        </mxCell>
        <mxCell id="Dm8e_R-dV30CJtn95JaC-69" style="rounded=0;orthogonalLoop=1;jettySize=auto;html=1;exitX=1;exitY=0.5;exitDx=0;exitDy=0;entryX=0;entryY=0.5;entryDx=0;entryDy=0;strokeColor=#A8201A;fontColor=#143642;fillColor=#FAE5C7;dashed=1;" edge="1" parent="1" source="Dm8e_R-dV30CJtn95JaC-23" target="Dm8e_R-dV30CJtn95JaC-66">
          <mxGeometry relative="1" as="geometry">
            <mxPoint x="530" y="680" as="sourcePoint" />
            <mxPoint x="670" y="640" as="targetPoint" />
          </mxGeometry>
        </mxCell>
        <mxCell id="Dm8e_R-dV30CJtn95JaC-70" value="&amp;lt;&amp;lt;include&amp;gt;&amp;gt;" style="edgeLabel;html=1;align=center;verticalAlign=middle;resizable=0;points=[];fontColor=#143642;" vertex="1" connectable="0" parent="Dm8e_R-dV30CJtn95JaC-69">
          <mxGeometry x="-0.0842" relative="1" as="geometry">
            <mxPoint as="offset" />
          </mxGeometry>
        </mxCell>
        <mxCell id="Dm8e_R-dV30CJtn95JaC-71" value="" style="rounded=0;whiteSpace=wrap;html=1;strokeColor=#0F8B8D;fontColor=#143642;fillColor=none;" vertex="1" parent="1">
          <mxGeometry x="100" y="40" width="690" height="960" as="geometry" />
        </mxCell>
        <mxCell id="Dm8e_R-dV30CJtn95JaC-72" value="&lt;font style=&quot;font-size: 22px;&quot;&gt;Mediatoria&lt;/font&gt;" style="text;html=1;align=center;verticalAlign=middle;resizable=0;points=[];autosize=1;strokeColor=none;fillColor=none;fontColor=#143642;" vertex="1" parent="1">
          <mxGeometry x="380" y="35" width="130" height="40" as="geometry" />
        </mxCell>
      </root>
    </mxGraphModel>
  </diagram>
</mxfile>
